<?xml version="1.0" standalone="no"?><!DOCTYPE svg PUBLIC "-//W3C//DTD SVG 1.1//EN" "http://www.w3.org/Graphics/SVG/1.1/DTD/svg11.dtd"><svg t="1747798284257" class="icon" viewBox="0 0 1129 1024" version="1.1" xmlns="http://www.w3.org/2000/svg" p-id="1490" xmlns:xlink="http://www.w3.org/1999/xlink" width="70.5625" height="64"><path d="M0 0m51.582588 0l997.263369 0q51.582588 0 51.582588 51.582588l0 0q0 51.582588-51.582588 51.582588l-997.263369 0q-51.582588 0-51.582588-51.582588l0 0q0-51.582588 51.582588-51.582588Z" p-id="1491"></path><path d="M0 448.424632m51.582588 0l997.263369 0q51.582588 0 51.582588 51.582588l0 0q0 51.582588-51.582588 51.582588l-997.263369 0q-51.582588 0-51.582588-51.582588l0 0q0-51.582588 51.582588-51.582588Z" p-id="1492"></path><path d="M0 894.442077m51.582588 0l997.263369 0q51.582588 0 51.582588 51.582588l0 0q0 51.582588-51.582588 51.582588l-997.263369 0q-51.582588 0-51.582588-51.582588l0 0q0-51.582588 51.582588-51.582588Z" p-id="1493"></path></svg>